<svg height="26" viewBox="0 0 32 26" width="32" xmlns="http://www.w3.org/2000/svg"><path d="m32 3.07740819c-1.177.52189964-2.443.87483176-3.771 1.03380119 1.356-.81284368 2.397-2.09859642 2.887-3.63130167-1.268.75185541-2.674 1.29775043-4.169 1.59269371-1.198-1.27575466-2.904-2.07260142-4.792-2.07260142-3.626 0-6.565 2.93843492-6.565 6.56373774 0 .51390118.058 1.01480485.17 1.49571237-5.457-.27394732-10.294-2.88744473-13.532-6.85868103-.565.9698135-.889 2.09759662-.889 3.30036532 0 2.2765622 1.159 4.28617573 2.92 5.46294943-1.076-.03399346-2.088-.32893674-2.973-.82084215-.001.02799462-.001.05498943-.001.08298405 0 3.18038837 2.263 5.83287827 5.267 6.43576237-.551.1499711-1.131.2299558-1.73.2299558-.423 0-.834-.0409922-1.235-.1169775.835 2.6074985 3.26 4.5051336 6.133 4.5581234-2.247 1.7606614-5.078 2.8094597-8.154 2.8094597-.53 0-1.052-.030994-1.566-.0909825 2.905 1.861642 6.356 2.948433 10.064 2.948433 12.076 0 18.679-10.0020765 18.679-18.67540858 0-.2849452-.006-.56789079-.019-.84983657 1.283-.92482214 2.396-2.08059988 3.276-3.39734666" fill-rule="evenodd"/></svg>