<svg height="32" viewBox="0 0 32 32" width="32" xmlns="http://www.w3.org/2000/svg"><path d="m25.44 14.24c-5.12-3.04-13.68-3.36-18.56-1.84-.8.24-1.6-.24-1.84-.96-.24-.8.24-1.6.96-1.84 5.68-1.68 15.04-1.36 20.96 2.16.72.4.96 1.36.56 2.08-.4.56-1.36.8-2.08.4m-.16 4.48c-.4.56-1.12.8-1.68.4-4.32-2.64-10.88-3.44-15.92-1.84-.64.16-1.36-.16-1.52-.8s.16-1.36.8-1.52c5.84-1.76 13.04-.88 18 2.16.48.24.72 1.04.32 1.6m-1.92 4.4c-.32.48-.88.64-1.36.32-3.76-2.32-8.48-2.8-14.08-1.52-.56.16-1.04-.24-1.2-.72-.16-.56.24-1.04.72-1.2 6.08-1.36 11.36-.8 15.52 1.76.56.24.64.88.4 1.36m-7.36-23.12c-8.8 0-16 7.2-16 16s7.2 16 16 16 16-7.2 16-16-7.12-16-16-16" fill-rule="evenodd"/></svg>