<svg height="31" viewBox="0 0 31 31" width="31" xmlns="http://www.w3.org/2000/svg"><path d="m9.11505682 0c-5.00337323 0-9.11505682 4.10617968-9.11505682 9.11505682v12.76988638c0 5.0033732 4.10617968 9.1150568 9.11505682 9.1150568h12.76988638c5.0033732 0 9.1150568-4.1061783 9.1150568-9.1150568v-12.76988638c0-5.00337323-4.1061783-9.11505682-9.1150568-9.11505682zm0 2.81818182h12.76988638c3.4841971 0 6.296875 2.81267791 6.296875 6.296875v12.76988638c0 3.4841971-2.8126779 6.296875-6.296875 6.296875h-12.76988638c-3.48419709 0-6.296875-2.8126779-6.296875-6.296875v-12.76988638c0-3.48419709 2.81267791-6.296875 6.296875-6.296875zm14.70738638 3.08238636c-.7100494 0-1.2769887.56693927-1.2769887 1.27698864 0 .71004936.5669393 1.27698863 1.2769887 1.27698863.7100493 0 1.2769886-.56693927 1.2769886-1.27698863 0-.71004937-.5669393-1.27698864-1.2769886-1.27698864zm-8.3224432 1.14488637c-4.6511005 0-8.45454545 3.80344495-8.45454545 8.45454545s3.80344495 8.4545455 8.45454545 8.4545455 8.4545455-3.803445 8.4545455-8.4545455-3.803445-8.45454545-8.4545455-8.45454545zm0 2.81818181c3.1319244 0 5.6363636 2.50443924 5.6363636 5.63636364s-2.5044392 5.6363636-5.6363636 5.6363636-5.63636364-2.5044392-5.63636364-5.6363636 2.50443924-5.63636364 5.63636364-5.63636364z"/></svg>